G04 #@! TF.GenerationSoftware,KiCad,Pcbnew,8.0.4*
G04 #@! TF.CreationDate,2024-08-15T12:45:58+02:00*
G04 #@! TF.ProjectId,usb A,75736220-412e-46b6-9963-61645f706362,rev?*
G04 #@! TF.SameCoordinates,Original*
G04 #@! TF.FileFunction,Legend,Top*
G04 #@! TF.FilePolarity,Positive*
%FSLAX46Y46*%
G04 Gerber Fmt 4.6, Leading zero omitted, Abs format (unit mm)*
G04 Created by KiCad (PCBNEW 8.0.4) date 2024-08-15 12:45:58*
%MOMM*%
%LPD*%
G01*
G04 APERTURE LIST*
%ADD10C,0.250000*%
%ADD11C,0.120000*%
%ADD12C,1.500000*%
%ADD13C,3.500000*%
%ADD14R,1.700000X1.700000*%
%ADD15O,1.700000X1.700000*%
G04 APERTURE END LIST*
D10*
G04 #@! TO.C,USB1*
X63950000Y-66750000D02*
X63950000Y-81250000D01*
X72430000Y-66750000D02*
X64010000Y-66750000D01*
X72650000Y-81370000D02*
X64010000Y-81370000D01*
X79000000Y-81370000D02*
X75980000Y-81370000D01*
X79200000Y-66750000D02*
X76150000Y-66750000D01*
X79200000Y-81250000D02*
X79200000Y-66750000D01*
D11*
G04 #@! TO.C,J1*
X91605000Y-68015000D02*
X92875000Y-68015000D01*
X91605000Y-69285000D02*
X91605000Y-68015000D01*
X93917929Y-71445000D02*
X94315000Y-71445000D01*
X93917929Y-72205000D02*
X94315000Y-72205000D01*
X93917929Y-73985000D02*
X94315000Y-73985000D01*
X93917929Y-74745000D02*
X94315000Y-74745000D01*
X93917929Y-76525000D02*
X94315000Y-76525000D01*
X93917929Y-77285000D02*
X94315000Y-77285000D01*
X93985000Y-68905000D02*
X94315000Y-68905000D01*
X93985000Y-69665000D02*
X94315000Y-69665000D01*
X94315000Y-67955000D02*
X94315000Y-78235000D01*
X94315000Y-70555000D02*
X96975000Y-70555000D01*
X94315000Y-73095000D02*
X96975000Y-73095000D01*
X94315000Y-75635000D02*
X96975000Y-75635000D01*
X94315000Y-78235000D02*
X96975000Y-78235000D01*
X96975000Y-67955000D02*
X94315000Y-67955000D01*
X96975000Y-68905000D02*
X102975000Y-68905000D01*
X96975000Y-68965000D02*
X102975000Y-68965000D01*
X96975000Y-69085000D02*
X102975000Y-69085000D01*
X96975000Y-69205000D02*
X102975000Y-69205000D01*
X96975000Y-69325000D02*
X102975000Y-69325000D01*
X96975000Y-69445000D02*
X102975000Y-69445000D01*
X96975000Y-69565000D02*
X102975000Y-69565000D01*
X96975000Y-71445000D02*
X102975000Y-71445000D01*
X96975000Y-73985000D02*
X102975000Y-73985000D01*
X96975000Y-76525000D02*
X102975000Y-76525000D01*
X96975000Y-78235000D02*
X96975000Y-67955000D01*
X102975000Y-68905000D02*
X102975000Y-69665000D01*
X102975000Y-69665000D02*
X96975000Y-69665000D01*
X102975000Y-71445000D02*
X102975000Y-72205000D01*
X102975000Y-72205000D02*
X96975000Y-72205000D01*
X102975000Y-73985000D02*
X102975000Y-74745000D01*
X102975000Y-74745000D02*
X96975000Y-74745000D01*
X102975000Y-76525000D02*
X102975000Y-77285000D01*
X102975000Y-77285000D02*
X96975000Y-77285000D01*
G04 #@! TD*
%LPC*%
D12*
G04 #@! TO.C,USB1*
X77000000Y-70500000D03*
X77000000Y-73000000D03*
X77000000Y-75000000D03*
X77000000Y-77500000D03*
D13*
X74290000Y-80570000D03*
X74290000Y-67430000D03*
X69300000Y-74000000D03*
G04 #@! TD*
D14*
G04 #@! TO.C,J1*
X92875000Y-69285000D03*
D15*
X92875000Y-71825000D03*
X92875000Y-74365000D03*
X92875000Y-76905000D03*
G04 #@! TD*
%LPD*%
M02*
