G04 #@! TF.GenerationSoftware,KiCad,Pcbnew,8.0.4*
G04 #@! TF.CreationDate,2024-08-15T12:45:58+02:00*
G04 #@! TF.ProjectId,usb A,75736220-412e-46b6-9963-61645f706362,rev?*
G04 #@! TF.SameCoordinates,Original*
G04 #@! TF.FileFunction,AssemblyDrawing,Top*
%FSLAX46Y46*%
G04 Gerber Fmt 4.6, Leading zero omitted, Abs format (unit mm)*
G04 Created by KiCad (PCBNEW 8.0.4) date 2024-08-15 12:45:58*
%MOMM*%
%LPD*%
G01*
G04 APERTURE LIST*
%ADD10C,0.150000*%
%ADD11C,1.150000*%
%ADD12C,0.400000*%
%ADD13C,0.060000*%
%ADD14C,0.100000*%
G04 APERTURE END LIST*
D10*
X64754819Y-84404762D02*
X65564342Y-84404762D01*
X65564342Y-84404762D02*
X65659580Y-84357143D01*
X65659580Y-84357143D02*
X65707200Y-84309524D01*
X65707200Y-84309524D02*
X65754819Y-84214286D01*
X65754819Y-84214286D02*
X65754819Y-84023810D01*
X65754819Y-84023810D02*
X65707200Y-83928572D01*
X65707200Y-83928572D02*
X65659580Y-83880953D01*
X65659580Y-83880953D02*
X65564342Y-83833334D01*
X65564342Y-83833334D02*
X64754819Y-83833334D01*
X65231009Y-83023810D02*
X65278628Y-82880953D01*
X65278628Y-82880953D02*
X65326247Y-82833334D01*
X65326247Y-82833334D02*
X65421485Y-82785715D01*
X65421485Y-82785715D02*
X65564342Y-82785715D01*
X65564342Y-82785715D02*
X65659580Y-82833334D01*
X65659580Y-82833334D02*
X65707200Y-82880953D01*
X65707200Y-82880953D02*
X65754819Y-82976191D01*
X65754819Y-82976191D02*
X65754819Y-83357143D01*
X65754819Y-83357143D02*
X64754819Y-83357143D01*
X64754819Y-83357143D02*
X64754819Y-83023810D01*
X64754819Y-83023810D02*
X64802438Y-82928572D01*
X64802438Y-82928572D02*
X64850057Y-82880953D01*
X64850057Y-82880953D02*
X64945295Y-82833334D01*
X64945295Y-82833334D02*
X65040533Y-82833334D01*
X65040533Y-82833334D02*
X65135771Y-82880953D01*
X65135771Y-82880953D02*
X65183390Y-82928572D01*
X65183390Y-82928572D02*
X65231009Y-83023810D01*
X65231009Y-83023810D02*
X65231009Y-83357143D01*
X65469104Y-82404762D02*
X65469104Y-81928572D01*
X65754819Y-82500000D02*
X64754819Y-82166667D01*
X64754819Y-82166667D02*
X65754819Y-81833334D01*
X65373866Y-81500000D02*
X65373866Y-80738096D01*
X65088152Y-79833334D02*
X65754819Y-79833334D01*
X64707200Y-80071429D02*
X65421485Y-80309524D01*
X65421485Y-80309524D02*
X65421485Y-79690477D01*
X65754819Y-78738096D02*
X65278628Y-79071429D01*
X65754819Y-79309524D02*
X64754819Y-79309524D01*
X64754819Y-79309524D02*
X64754819Y-78928572D01*
X64754819Y-78928572D02*
X64802438Y-78833334D01*
X64802438Y-78833334D02*
X64850057Y-78785715D01*
X64850057Y-78785715D02*
X64945295Y-78738096D01*
X64945295Y-78738096D02*
X65088152Y-78738096D01*
X65088152Y-78738096D02*
X65183390Y-78785715D01*
X65183390Y-78785715D02*
X65231009Y-78833334D01*
X65231009Y-78833334D02*
X65278628Y-78928572D01*
X65278628Y-78928572D02*
X65278628Y-79309524D01*
X65373866Y-78309524D02*
X65373866Y-77547620D01*
X65754819Y-77071429D02*
X64754819Y-77071429D01*
X64754819Y-77071429D02*
X64754819Y-76833334D01*
X64754819Y-76833334D02*
X64802438Y-76690477D01*
X64802438Y-76690477D02*
X64897676Y-76595239D01*
X64897676Y-76595239D02*
X64992914Y-76547620D01*
X64992914Y-76547620D02*
X65183390Y-76500001D01*
X65183390Y-76500001D02*
X65326247Y-76500001D01*
X65326247Y-76500001D02*
X65516723Y-76547620D01*
X65516723Y-76547620D02*
X65611961Y-76595239D01*
X65611961Y-76595239D02*
X65707200Y-76690477D01*
X65707200Y-76690477D02*
X65754819Y-76833334D01*
X65754819Y-76833334D02*
X65754819Y-77071429D01*
X65754819Y-75547620D02*
X65754819Y-76119048D01*
X65754819Y-75833334D02*
X64754819Y-75833334D01*
X64754819Y-75833334D02*
X64897676Y-75928572D01*
X64897676Y-75928572D02*
X64992914Y-76023810D01*
X64992914Y-76023810D02*
X65040533Y-76119048D01*
X65088152Y-74690477D02*
X65754819Y-74690477D01*
X64707200Y-74928572D02*
X65421485Y-75166667D01*
X65421485Y-75166667D02*
X65421485Y-74547620D01*
X64754819Y-74309524D02*
X64754819Y-73738096D01*
X65754819Y-74023810D02*
X64754819Y-74023810D01*
X65373866Y-73404762D02*
X65373866Y-72642858D01*
X65088152Y-71738096D02*
X65754819Y-71738096D01*
X64707200Y-71976191D02*
X65421485Y-72214286D01*
X65421485Y-72214286D02*
X65421485Y-71595239D01*
X65754819Y-71214286D02*
X64754819Y-71214286D01*
X64754819Y-71214286D02*
X64754819Y-70976191D01*
X64754819Y-70976191D02*
X64802438Y-70833334D01*
X64802438Y-70833334D02*
X64897676Y-70738096D01*
X64897676Y-70738096D02*
X64992914Y-70690477D01*
X64992914Y-70690477D02*
X65183390Y-70642858D01*
X65183390Y-70642858D02*
X65326247Y-70642858D01*
X65326247Y-70642858D02*
X65516723Y-70690477D01*
X65516723Y-70690477D02*
X65611961Y-70738096D01*
X65611961Y-70738096D02*
X65707200Y-70833334D01*
X65707200Y-70833334D02*
X65754819Y-70976191D01*
X65754819Y-70976191D02*
X65754819Y-71214286D01*
X66135771Y-69166667D02*
X66088152Y-69214286D01*
X66088152Y-69214286D02*
X65945295Y-69309524D01*
X65945295Y-69309524D02*
X65850057Y-69357143D01*
X65850057Y-69357143D02*
X65707200Y-69404762D01*
X65707200Y-69404762D02*
X65469104Y-69452381D01*
X65469104Y-69452381D02*
X65278628Y-69452381D01*
X65278628Y-69452381D02*
X65040533Y-69404762D01*
X65040533Y-69404762D02*
X64897676Y-69357143D01*
X64897676Y-69357143D02*
X64802438Y-69309524D01*
X64802438Y-69309524D02*
X64659580Y-69214286D01*
X64659580Y-69214286D02*
X64611961Y-69166667D01*
X65754819Y-68309524D02*
X65754819Y-68785714D01*
X65754819Y-68785714D02*
X64754819Y-68785714D01*
X65231009Y-67642857D02*
X65231009Y-67976190D01*
X65754819Y-67976190D02*
X64754819Y-67976190D01*
X64754819Y-67976190D02*
X64754819Y-67500000D01*
X66135771Y-67214285D02*
X66088152Y-67166666D01*
X66088152Y-67166666D02*
X65945295Y-67071428D01*
X65945295Y-67071428D02*
X65850057Y-67023809D01*
X65850057Y-67023809D02*
X65707200Y-66976190D01*
X65707200Y-66976190D02*
X65469104Y-66928571D01*
X65469104Y-66928571D02*
X65278628Y-66928571D01*
X65278628Y-66928571D02*
X65040533Y-66976190D01*
X65040533Y-66976190D02*
X64897676Y-67023809D01*
X64897676Y-67023809D02*
X64802438Y-67071428D01*
X64802438Y-67071428D02*
X64659580Y-67166666D01*
X64659580Y-67166666D02*
X64611961Y-67214285D01*
X66135771Y-66166666D02*
X66088152Y-66214285D01*
X66088152Y-66214285D02*
X65945295Y-66309523D01*
X65945295Y-66309523D02*
X65850057Y-66357142D01*
X65850057Y-66357142D02*
X65707200Y-66404761D01*
X65707200Y-66404761D02*
X65469104Y-66452380D01*
X65469104Y-66452380D02*
X65278628Y-66452380D01*
X65278628Y-66452380D02*
X65040533Y-66404761D01*
X65040533Y-66404761D02*
X64897676Y-66357142D01*
X64897676Y-66357142D02*
X64802438Y-66309523D01*
X64802438Y-66309523D02*
X64659580Y-66214285D01*
X64659580Y-66214285D02*
X64611961Y-66166666D01*
X65707200Y-65833332D02*
X65754819Y-65690475D01*
X65754819Y-65690475D02*
X65754819Y-65452380D01*
X65754819Y-65452380D02*
X65707200Y-65357142D01*
X65707200Y-65357142D02*
X65659580Y-65309523D01*
X65659580Y-65309523D02*
X65564342Y-65261904D01*
X65564342Y-65261904D02*
X65469104Y-65261904D01*
X65469104Y-65261904D02*
X65373866Y-65309523D01*
X65373866Y-65309523D02*
X65326247Y-65357142D01*
X65326247Y-65357142D02*
X65278628Y-65452380D01*
X65278628Y-65452380D02*
X65231009Y-65642856D01*
X65231009Y-65642856D02*
X65183390Y-65738094D01*
X65183390Y-65738094D02*
X65135771Y-65785713D01*
X65135771Y-65785713D02*
X65040533Y-65833332D01*
X65040533Y-65833332D02*
X64945295Y-65833332D01*
X64945295Y-65833332D02*
X64850057Y-65785713D01*
X64850057Y-65785713D02*
X64802438Y-65738094D01*
X64802438Y-65738094D02*
X64754819Y-65642856D01*
X64754819Y-65642856D02*
X64754819Y-65404761D01*
X64754819Y-65404761D02*
X64802438Y-65261904D01*
X65754819Y-64833332D02*
X64754819Y-64833332D01*
X64754819Y-64833332D02*
X65754819Y-64261904D01*
X65754819Y-64261904D02*
X64754819Y-64261904D01*
X66135771Y-63880951D02*
X66088152Y-63833332D01*
X66088152Y-63833332D02*
X65945295Y-63738094D01*
X65945295Y-63738094D02*
X65850057Y-63690475D01*
X65850057Y-63690475D02*
X65707200Y-63642856D01*
X65707200Y-63642856D02*
X65469104Y-63595237D01*
X65469104Y-63595237D02*
X65278628Y-63595237D01*
X65278628Y-63595237D02*
X65040533Y-63642856D01*
X65040533Y-63642856D02*
X64897676Y-63690475D01*
X64897676Y-63690475D02*
X64802438Y-63738094D01*
X64802438Y-63738094D02*
X64659580Y-63833332D01*
X64659580Y-63833332D02*
X64611961Y-63880951D01*
X72604819Y-75738094D02*
X73414342Y-75738094D01*
X73414342Y-75738094D02*
X73509580Y-75690475D01*
X73509580Y-75690475D02*
X73557200Y-75642856D01*
X73557200Y-75642856D02*
X73604819Y-75547618D01*
X73604819Y-75547618D02*
X73604819Y-75357142D01*
X73604819Y-75357142D02*
X73557200Y-75261904D01*
X73557200Y-75261904D02*
X73509580Y-75214285D01*
X73509580Y-75214285D02*
X73414342Y-75166666D01*
X73414342Y-75166666D02*
X72604819Y-75166666D01*
X73557200Y-74738094D02*
X73604819Y-74595237D01*
X73604819Y-74595237D02*
X73604819Y-74357142D01*
X73604819Y-74357142D02*
X73557200Y-74261904D01*
X73557200Y-74261904D02*
X73509580Y-74214285D01*
X73509580Y-74214285D02*
X73414342Y-74166666D01*
X73414342Y-74166666D02*
X73319104Y-74166666D01*
X73319104Y-74166666D02*
X73223866Y-74214285D01*
X73223866Y-74214285D02*
X73176247Y-74261904D01*
X73176247Y-74261904D02*
X73128628Y-74357142D01*
X73128628Y-74357142D02*
X73081009Y-74547618D01*
X73081009Y-74547618D02*
X73033390Y-74642856D01*
X73033390Y-74642856D02*
X72985771Y-74690475D01*
X72985771Y-74690475D02*
X72890533Y-74738094D01*
X72890533Y-74738094D02*
X72795295Y-74738094D01*
X72795295Y-74738094D02*
X72700057Y-74690475D01*
X72700057Y-74690475D02*
X72652438Y-74642856D01*
X72652438Y-74642856D02*
X72604819Y-74547618D01*
X72604819Y-74547618D02*
X72604819Y-74309523D01*
X72604819Y-74309523D02*
X72652438Y-74166666D01*
X73081009Y-73404761D02*
X73128628Y-73261904D01*
X73128628Y-73261904D02*
X73176247Y-73214285D01*
X73176247Y-73214285D02*
X73271485Y-73166666D01*
X73271485Y-73166666D02*
X73414342Y-73166666D01*
X73414342Y-73166666D02*
X73509580Y-73214285D01*
X73509580Y-73214285D02*
X73557200Y-73261904D01*
X73557200Y-73261904D02*
X73604819Y-73357142D01*
X73604819Y-73357142D02*
X73604819Y-73738094D01*
X73604819Y-73738094D02*
X72604819Y-73738094D01*
X72604819Y-73738094D02*
X72604819Y-73404761D01*
X72604819Y-73404761D02*
X72652438Y-73309523D01*
X72652438Y-73309523D02*
X72700057Y-73261904D01*
X72700057Y-73261904D02*
X72795295Y-73214285D01*
X72795295Y-73214285D02*
X72890533Y-73214285D01*
X72890533Y-73214285D02*
X72985771Y-73261904D01*
X72985771Y-73261904D02*
X73033390Y-73309523D01*
X73033390Y-73309523D02*
X73081009Y-73404761D01*
X73081009Y-73404761D02*
X73081009Y-73738094D01*
X73604819Y-72214285D02*
X73604819Y-72785713D01*
X73604819Y-72499999D02*
X72604819Y-72499999D01*
X72604819Y-72499999D02*
X72747676Y-72595237D01*
X72747676Y-72595237D02*
X72842914Y-72690475D01*
X72842914Y-72690475D02*
X72890533Y-72785713D01*
X93521904Y-79534580D02*
X93474285Y-79582200D01*
X93474285Y-79582200D02*
X93331428Y-79629819D01*
X93331428Y-79629819D02*
X93236190Y-79629819D01*
X93236190Y-79629819D02*
X93093333Y-79582200D01*
X93093333Y-79582200D02*
X92998095Y-79486961D01*
X92998095Y-79486961D02*
X92950476Y-79391723D01*
X92950476Y-79391723D02*
X92902857Y-79201247D01*
X92902857Y-79201247D02*
X92902857Y-79058390D01*
X92902857Y-79058390D02*
X92950476Y-78867914D01*
X92950476Y-78867914D02*
X92998095Y-78772676D01*
X92998095Y-78772676D02*
X93093333Y-78677438D01*
X93093333Y-78677438D02*
X93236190Y-78629819D01*
X93236190Y-78629819D02*
X93331428Y-78629819D01*
X93331428Y-78629819D02*
X93474285Y-78677438D01*
X93474285Y-78677438D02*
X93521904Y-78725057D01*
X94093333Y-79629819D02*
X93998095Y-79582200D01*
X93998095Y-79582200D02*
X93950476Y-79534580D01*
X93950476Y-79534580D02*
X93902857Y-79439342D01*
X93902857Y-79439342D02*
X93902857Y-79153628D01*
X93902857Y-79153628D02*
X93950476Y-79058390D01*
X93950476Y-79058390D02*
X93998095Y-79010771D01*
X93998095Y-79010771D02*
X94093333Y-78963152D01*
X94093333Y-78963152D02*
X94236190Y-78963152D01*
X94236190Y-78963152D02*
X94331428Y-79010771D01*
X94331428Y-79010771D02*
X94379047Y-79058390D01*
X94379047Y-79058390D02*
X94426666Y-79153628D01*
X94426666Y-79153628D02*
X94426666Y-79439342D01*
X94426666Y-79439342D02*
X94379047Y-79534580D01*
X94379047Y-79534580D02*
X94331428Y-79582200D01*
X94331428Y-79582200D02*
X94236190Y-79629819D01*
X94236190Y-79629819D02*
X94093333Y-79629819D01*
X94855238Y-78963152D02*
X94855238Y-79629819D01*
X94855238Y-79058390D02*
X94902857Y-79010771D01*
X94902857Y-79010771D02*
X94998095Y-78963152D01*
X94998095Y-78963152D02*
X95140952Y-78963152D01*
X95140952Y-78963152D02*
X95236190Y-79010771D01*
X95236190Y-79010771D02*
X95283809Y-79106009D01*
X95283809Y-79106009D02*
X95283809Y-79629819D01*
X95760000Y-78963152D02*
X95760000Y-79629819D01*
X95760000Y-79058390D02*
X95807619Y-79010771D01*
X95807619Y-79010771D02*
X95902857Y-78963152D01*
X95902857Y-78963152D02*
X96045714Y-78963152D01*
X96045714Y-78963152D02*
X96140952Y-79010771D01*
X96140952Y-79010771D02*
X96188571Y-79106009D01*
X96188571Y-79106009D02*
X96188571Y-79629819D01*
X96426667Y-79725057D02*
X97188571Y-79725057D01*
X97617143Y-78629819D02*
X97712381Y-78629819D01*
X97712381Y-78629819D02*
X97807619Y-78677438D01*
X97807619Y-78677438D02*
X97855238Y-78725057D01*
X97855238Y-78725057D02*
X97902857Y-78820295D01*
X97902857Y-78820295D02*
X97950476Y-79010771D01*
X97950476Y-79010771D02*
X97950476Y-79248866D01*
X97950476Y-79248866D02*
X97902857Y-79439342D01*
X97902857Y-79439342D02*
X97855238Y-79534580D01*
X97855238Y-79534580D02*
X97807619Y-79582200D01*
X97807619Y-79582200D02*
X97712381Y-79629819D01*
X97712381Y-79629819D02*
X97617143Y-79629819D01*
X97617143Y-79629819D02*
X97521905Y-79582200D01*
X97521905Y-79582200D02*
X97474286Y-79534580D01*
X97474286Y-79534580D02*
X97426667Y-79439342D01*
X97426667Y-79439342D02*
X97379048Y-79248866D01*
X97379048Y-79248866D02*
X97379048Y-79010771D01*
X97379048Y-79010771D02*
X97426667Y-78820295D01*
X97426667Y-78820295D02*
X97474286Y-78725057D01*
X97474286Y-78725057D02*
X97521905Y-78677438D01*
X97521905Y-78677438D02*
X97617143Y-78629819D01*
X98902857Y-79629819D02*
X98331429Y-79629819D01*
X98617143Y-79629819D02*
X98617143Y-78629819D01*
X98617143Y-78629819D02*
X98521905Y-78772676D01*
X98521905Y-78772676D02*
X98426667Y-78867914D01*
X98426667Y-78867914D02*
X98331429Y-78915533D01*
X99236191Y-79629819D02*
X99760000Y-78963152D01*
X99236191Y-78963152D02*
X99760000Y-79629819D01*
X100331429Y-78629819D02*
X100426667Y-78629819D01*
X100426667Y-78629819D02*
X100521905Y-78677438D01*
X100521905Y-78677438D02*
X100569524Y-78725057D01*
X100569524Y-78725057D02*
X100617143Y-78820295D01*
X100617143Y-78820295D02*
X100664762Y-79010771D01*
X100664762Y-79010771D02*
X100664762Y-79248866D01*
X100664762Y-79248866D02*
X100617143Y-79439342D01*
X100617143Y-79439342D02*
X100569524Y-79534580D01*
X100569524Y-79534580D02*
X100521905Y-79582200D01*
X100521905Y-79582200D02*
X100426667Y-79629819D01*
X100426667Y-79629819D02*
X100331429Y-79629819D01*
X100331429Y-79629819D02*
X100236191Y-79582200D01*
X100236191Y-79582200D02*
X100188572Y-79534580D01*
X100188572Y-79534580D02*
X100140953Y-79439342D01*
X100140953Y-79439342D02*
X100093334Y-79248866D01*
X100093334Y-79248866D02*
X100093334Y-79010771D01*
X100093334Y-79010771D02*
X100140953Y-78820295D01*
X100140953Y-78820295D02*
X100188572Y-78725057D01*
X100188572Y-78725057D02*
X100236191Y-78677438D01*
X100236191Y-78677438D02*
X100331429Y-78629819D01*
X101521905Y-78963152D02*
X101521905Y-79629819D01*
X101283810Y-78582200D02*
X101045715Y-79296485D01*
X101045715Y-79296485D02*
X101664762Y-79296485D01*
D11*
G04 #@! TO.C,USB1*
X69880000Y-74000000D02*
G75*
G02*
X68720000Y-74000000I-580000J0D01*
G01*
X68720000Y-74000000D02*
G75*
G02*
X69880000Y-74000000I580000J0D01*
G01*
X74870000Y-67430000D02*
G75*
G02*
X73710000Y-67430000I-580000J0D01*
G01*
X73710000Y-67430000D02*
G75*
G02*
X74870000Y-67430000I580000J0D01*
G01*
X74870000Y-80570000D02*
G75*
G02*
X73710000Y-80570000I-580000J0D01*
G01*
X73710000Y-80570000D02*
G75*
G02*
X74870000Y-80570000I580000J0D01*
G01*
D12*
X77200000Y-70500000D02*
G75*
G02*
X76800000Y-70500000I-200000J0D01*
G01*
X76800000Y-70500000D02*
G75*
G02*
X77200000Y-70500000I200000J0D01*
G01*
X77200000Y-73000000D02*
G75*
G02*
X76800000Y-73000000I-200000J0D01*
G01*
X76800000Y-73000000D02*
G75*
G02*
X77200000Y-73000000I200000J0D01*
G01*
X77200000Y-75000000D02*
G75*
G02*
X76800000Y-75000000I-200000J0D01*
G01*
X76800000Y-75000000D02*
G75*
G02*
X77200000Y-75000000I200000J0D01*
G01*
X77200000Y-77500000D02*
G75*
G02*
X76800000Y-77500000I-200000J0D01*
G01*
X76800000Y-77500000D02*
G75*
G02*
X77200000Y-77500000I200000J0D01*
G01*
D13*
X79360000Y-65680000D02*
G75*
G02*
X79300000Y-65680000I-30000J0D01*
G01*
X79300000Y-65680000D02*
G75*
G02*
X79360000Y-65680000I30000J0D01*
G01*
D14*
G04 #@! TO.C,J1*
X92555000Y-68965000D02*
X92555000Y-69605000D01*
X92555000Y-68965000D02*
X94375000Y-68965000D01*
X92555000Y-69605000D02*
X94375000Y-69605000D01*
X92555000Y-71505000D02*
X92555000Y-72145000D01*
X92555000Y-71505000D02*
X94375000Y-71505000D01*
X92555000Y-72145000D02*
X94375000Y-72145000D01*
X92555000Y-74045000D02*
X92555000Y-74685000D01*
X92555000Y-74045000D02*
X94375000Y-74045000D01*
X92555000Y-74685000D02*
X94375000Y-74685000D01*
X92555000Y-76585000D02*
X92555000Y-77225000D01*
X92555000Y-76585000D02*
X94375000Y-76585000D01*
X92555000Y-77225000D02*
X94375000Y-77225000D01*
X94375000Y-68650000D02*
X95010000Y-68015000D01*
X94375000Y-78175000D02*
X94375000Y-68650000D01*
X95010000Y-68015000D02*
X96915000Y-68015000D01*
X96915000Y-68015000D02*
X96915000Y-78175000D01*
X96915000Y-68965000D02*
X102915000Y-68965000D01*
X96915000Y-69605000D02*
X102915000Y-69605000D01*
X96915000Y-71505000D02*
X102915000Y-71505000D01*
X96915000Y-72145000D02*
X102915000Y-72145000D01*
X96915000Y-74045000D02*
X102915000Y-74045000D01*
X96915000Y-74685000D02*
X102915000Y-74685000D01*
X96915000Y-76585000D02*
X102915000Y-76585000D01*
X96915000Y-77225000D02*
X102915000Y-77225000D01*
X96915000Y-78175000D02*
X94375000Y-78175000D01*
X102915000Y-68965000D02*
X102915000Y-69605000D01*
X102915000Y-71505000D02*
X102915000Y-72145000D01*
X102915000Y-74045000D02*
X102915000Y-74685000D01*
X102915000Y-76585000D02*
X102915000Y-77225000D01*
G04 #@! TD*
M02*
