G04 #@! TF.GenerationSoftware,KiCad,Pcbnew,8.0.4*
G04 #@! TF.CreationDate,2024-08-15T12:45:58+02:00*
G04 #@! TF.ProjectId,usb A,75736220-412e-46b6-9963-61645f706362,rev?*
G04 #@! TF.SameCoordinates,Original*
G04 #@! TF.FileFunction,Copper,L1,Top*
G04 #@! TF.FilePolarity,Positive*
%FSLAX46Y46*%
G04 Gerber Fmt 4.6, Leading zero omitted, Abs format (unit mm)*
G04 Created by KiCad (PCBNEW 8.0.4) date 2024-08-15 12:45:58*
%MOMM*%
%LPD*%
G01*
G04 APERTURE LIST*
G04 #@! TA.AperFunction,ComponentPad*
%ADD10C,1.500000*%
G04 #@! TD*
G04 #@! TA.AperFunction,ComponentPad*
%ADD11C,3.500000*%
G04 #@! TD*
G04 #@! TA.AperFunction,ComponentPad*
%ADD12R,1.700000X1.700000*%
G04 #@! TD*
G04 #@! TA.AperFunction,ComponentPad*
%ADD13O,1.700000X1.700000*%
G04 #@! TD*
G04 #@! TA.AperFunction,Conductor*
%ADD14C,0.200000*%
G04 #@! TD*
G04 APERTURE END LIST*
D10*
G04 #@! TO.P,USB1,1,VCC*
G04 #@! TO.N,/VCC*
X77000000Y-70500000D03*
G04 #@! TO.P,USB1,2,D-*
G04 #@! TO.N,/D-*
X77000000Y-73000000D03*
G04 #@! TO.P,USB1,3,D+*
G04 #@! TO.N,/D+*
X77000000Y-75000000D03*
G04 #@! TO.P,USB1,4,GND*
G04 #@! TO.N,/GND*
X77000000Y-77500000D03*
D11*
G04 #@! TO.P,USB1,5,GND*
X74290000Y-80570000D03*
G04 #@! TO.P,USB1,6,GND*
X74290000Y-67430000D03*
G04 #@! TO.P,USB1,7,GND*
X69300000Y-74000000D03*
G04 #@! TD*
D12*
G04 #@! TO.P,J1,1,Pin_1*
G04 #@! TO.N,/GND*
X92875000Y-69285000D03*
D13*
G04 #@! TO.P,J1,2,Pin_2*
G04 #@! TO.N,/D+*
X92875000Y-71825000D03*
G04 #@! TO.P,J1,3,Pin_3*
G04 #@! TO.N,/D-*
X92875000Y-74365000D03*
G04 #@! TO.P,J1,4,Pin_4*
G04 #@! TO.N,/VCC*
X92875000Y-76905000D03*
G04 #@! TD*
D14*
G04 #@! TO.N,/GND*
X69300000Y-72420000D02*
X69300000Y-74000000D01*
X79430000Y-67430000D02*
X86000000Y-74000000D01*
X69300000Y-74000000D02*
X74290000Y-78990000D01*
X86000000Y-74000000D02*
X90000000Y-74000000D01*
X74290000Y-78990000D02*
X74290000Y-80570000D01*
X77000000Y-77500000D02*
X74290000Y-80210000D01*
X74290000Y-67430000D02*
X69300000Y-72420000D01*
X90000000Y-72160000D02*
X92875000Y-69285000D01*
X74290000Y-80210000D02*
X74290000Y-80570000D01*
X74290000Y-67430000D02*
X79430000Y-67430000D01*
X90000000Y-74000000D02*
X90000000Y-72160000D01*
G04 #@! TO.N,/D+*
X77000000Y-75000000D02*
X75550000Y-73550000D01*
X91000000Y-75000000D02*
X91000000Y-73700000D01*
X76399389Y-69050000D02*
X79050000Y-69050000D01*
X85000000Y-75000000D02*
X91000000Y-75000000D01*
X91000000Y-73700000D02*
X92875000Y-71825000D01*
X75550000Y-73550000D02*
X75550000Y-69899389D01*
X75550000Y-69899389D02*
X76399389Y-69050000D01*
X79050000Y-69050000D02*
X85000000Y-75000000D01*
G04 #@! TO.N,/VCC*
X77000000Y-70500000D02*
X83405000Y-76905000D01*
X83405000Y-76905000D02*
X92875000Y-76905000D01*
G04 #@! TO.N,/D-*
X84000000Y-76000000D02*
X91240000Y-76000000D01*
X75950000Y-70065075D02*
X76565075Y-69450000D01*
X91240000Y-76000000D02*
X92875000Y-74365000D01*
X75950000Y-71950000D02*
X75950000Y-70065075D01*
X77450000Y-69450000D02*
X84000000Y-76000000D01*
X77000000Y-73000000D02*
X75950000Y-71950000D01*
X76565075Y-69450000D02*
X77450000Y-69450000D01*
G04 #@! TD*
M02*
